TITLE ""
FILE "1Q_t_2010-2019.mp3" MP3
  TRACK 01 AUDIO
    TITLE "1Q_t_2010-2019_01"
    INDEX 01 00:00:00
  TRACK 02 AUDIO
    TITLE "1Q_t_2010-2019_02"
    INDEX 01 00:00:08
  TRACK 03 AUDIO
    TITLE "1Q_t_2010-2019_03"
    INDEX 01 00:01:14
  TRACK 04 AUDIO
    TITLE "1Q_t_2010-2019_04"
    INDEX 01 00:01:22
  TRACK 05 AUDIO
    TITLE "1Q_t_2010-2019_05"
    INDEX 01 00:02:64
  TRACK 06 AUDIO
    TITLE "1Q_t_2010-2019_06"
    INDEX 01 00:02:72
  TRACK 07 AUDIO
    TITLE "1Q_t_2010-2019_07"
    INDEX 01 00:07:06
  TRACK 08 AUDIO
    TITLE "1Q_t_2010-2019_08"
    INDEX 01 00:07:55
  TRACK 09 AUDIO
    TITLE "1Q_t_2010-2019_09"
    INDEX 01 00:08:67
  TRACK 10 AUDIO
    TITLE "1Q_t_2010-2019_10"
    INDEX 01 00:09:01
  TRACK 11 AUDIO
    TITLE "1Q_t_2010-2019_11"
    INDEX 01 00:10:32
  TRACK 12 AUDIO
    TITLE "1Q_t_2010-2019_12"
    INDEX 01 00:10:42
  TRACK 13 AUDIO
    TITLE "1Q_t_2010-2019_13"
    INDEX 01 00:14:30
  TRACK 14 AUDIO
    TITLE "1Q_t_2010-2019_14"
    INDEX 01 00:15:02
  TRACK 15 AUDIO
    TITLE "1Q_t_2010-2019_15"
    INDEX 01 00:16:19
  TRACK 16 AUDIO
    TITLE "1Q_t_2010-2019_16"
    INDEX 01 00:16:27
  TRACK 17 AUDIO
    TITLE "1Q_t_2010-2019_17"
    INDEX 01 00:18:26
  TRACK 18 AUDIO
    TITLE "1Q_t_2010-2019_18"
    INDEX 01 00:18:36
  TRACK 19 AUDIO
    TITLE "1Q_t_2010-2019_19"
    INDEX 01 00:22:31
  TRACK 20 AUDIO
    TITLE "1Q_t_2010-2019_20"
    INDEX 01 00:23:03
  TRACK 21 AUDIO
    TITLE "1Q_t_2010-2019_21"
    INDEX 01 00:24:21
  TRACK 22 AUDIO
    TITLE "1Q_t_2010-2019_22"
    INDEX 01 00:24:30
  TRACK 23 AUDIO
    TITLE "1Q_t_2010-2019_23"
    INDEX 01 00:25:49
  TRACK 24 AUDIO
    TITLE "1Q_t_2010-2019_24"
    INDEX 01 00:25:59
  TRACK 25 AUDIO
    TITLE "1Q_t_2010-2019_25"
    INDEX 01 00:29:47
  TRACK 26 AUDIO
    TITLE "1Q_t_2010-2019_26"
    INDEX 01 00:30:19
  TRACK 27 AUDIO
    TITLE "1Q_t_2010-2019_27"
    INDEX 01 00:31:54
  TRACK 28 AUDIO
    TITLE "1Q_t_2010-2019_28"
    INDEX 01 00:31:62
  TRACK 29 AUDIO
    TITLE "1Q_t_2010-2019_29"
    INDEX 01 00:33:23
  TRACK 30 AUDIO
    TITLE "1Q_t_2010-2019_30"
    INDEX 01 00:33:31
  TRACK 31 AUDIO
    TITLE "1Q_t_2010-2019_31"
    INDEX 01 00:39:16
  TRACK 32 AUDIO
    TITLE "1Q_t_2010-2019_32"
    INDEX 01 00:39:63
  TRACK 33 AUDIO
    TITLE "1Q_t_2010-2019_33"
    INDEX 01 00:41:13
  TRACK 34 AUDIO
    TITLE "1Q_t_2010-2019_34"
    INDEX 01 00:41:23
  TRACK 35 AUDIO
    TITLE "1Q_t_2010-2019_35"
    INDEX 01 00:44:53
  TRACK 36 AUDIO
    TITLE "1Q_t_2010-2019_36"
    INDEX 01 00:44:62
  TRACK 37 AUDIO
    TITLE "1Q_t_2010-2019_37"
    INDEX 01 00:49:70
  TRACK 38 AUDIO
    TITLE "1Q_t_2010-2019_38"
    INDEX 01 00:50:40
  TRACK 39 AUDIO
    TITLE "1Q_t_2010-2019_39"
    INDEX 01 00:51:51
  TRACK 40 AUDIO
    TITLE "1Q_t_2010-2019_40"
    INDEX 01 00:51:63
  TRACK 41 AUDIO
    TITLE "1Q_t_2010-2019_41"
    INDEX 01 00:53:16
  TRACK 42 AUDIO
    TITLE "1Q_t_2010-2019_42"
    INDEX 01 00:53:24
  TRACK 43 AUDIO
    TITLE "1Q_t_2010-2019_43"
    INDEX 01 00:57:16
  TRACK 44 AUDIO
    TITLE "1Q_t_2010-2019_44"
    INDEX 01 00:57:63
  TRACK 45 AUDIO
    TITLE "1Q_t_2010-2019_45"
    INDEX 01 00:58:61
  TRACK 46 AUDIO
    TITLE "1Q_t_2010-2019_46"
    INDEX 01 00:58:70
  TRACK 47 AUDIO
    TITLE "1Q_t_2010-2019_47"
    INDEX 01 01:01:61
  TRACK 48 AUDIO
    TITLE "1Q_t_2010-2019_48"
    INDEX 01 01:01:69
  TRACK 49 AUDIO
    TITLE "1Q_t_2010-2019_49"
    INDEX 01 01:06:46
  TRACK 50 AUDIO
    TITLE "1Q_t_2010-2019_50"
    INDEX 01 01:07:20
  TRACK 51 AUDIO
    TITLE "1Q_t_2010-2019_51"
    INDEX 01 01:08:32
  TRACK 52 AUDIO
    TITLE "1Q_t_2010-2019_52"
    INDEX 01 01:08:41
  TRACK 53 AUDIO
    TITLE "1Q_t_2010-2019_53"
    INDEX 01 01:09:74
  TRACK 54 AUDIO
    TITLE "1Q_t_2010-2019_54"
    INDEX 01 01:10:13
  TRACK 55 AUDIO
    TITLE "1Q_t_2010-2019_55"
    INDEX 01 01:15:18
  TRACK 56 AUDIO
    TITLE "1Q_t_2010-2019_56"
    INDEX 01 01:15:63
  TRACK 57 AUDIO
    TITLE "1Q_t_2010-2019_57"
    INDEX 01 01:17:05
  TRACK 58 AUDIO
    TITLE "1Q_t_2010-2019_58"
    INDEX 01 01:17:17
  TRACK 59 AUDIO
    TITLE "1Q_t_2010-2019_59"
    INDEX 01 01:19:06
  TRACK 60 AUDIO
    TITLE "1Q_t_2010-2019_60"
    INDEX 01 01:19:14
  TRACK 61 AUDIO
    TITLE "1Q_t_2010-2019_61"
    INDEX 01 01:24:11
